<svg xmlns="http://www.w3.org/2000/svg" viewBox="0 0 200 40" role="img" aria-label="AI Justicia - Opción 5">
  <!-- OP5: Comillas-cita (representa verificación de citas, el diferenciador) en hexágono -->
  <g transform="translate(4,4)">
    <path d="M16 1 L29 8.5 L29 23.5 L16 31 L3 23.5 L3 8.5 Z" fill="#047857"/>
    <path d="M16 1 L29 8.5 L29 23.5 L16 31 L3 23.5 L3 8.5 Z" fill="none" stroke="#064e3b" stroke-width="1"/>
    <!-- Comillas de cita jurídica -->
    <path d="M10 13 Q10 10 13 10 L13 13 Q11.5 13 11.5 15 L13 15 L13 18 L10 18 Z" fill="#ffffff"/>
    <path d="M16.5 13 Q16.5 10 19.5 10 L19.5 13 Q18 13 18 15 L19.5 15 L19.5 18 L16.5 18 Z" fill="#ffffff"/>
    <!-- Check de verificación (rojo) -->
    <path d="M12 22 L15 25 L21 19" fill="none" stroke="#c81e1e" stroke-width="2.2" stroke-linecap="round" stroke-linejoin="round"/>
  </g>
  <text x="48" y="20" font-family="Fraunces, Georgia, serif" font-size="18" font-weight="700" fill="#0f172a">AI Justicia</text>
  <text x="48" y="31" font-family="Inter, sans-serif" font-size="7" font-weight="500" fill="#64748b" letter-spacing="0.5">DERECHO MEXICANO · IA VERIFICABLE</text>
</svg>
